<svg xmlns="http://www.w3.org/2000/svg" viewBox="-10 -10 393.67 90.62">
  <defs>
    <style>
      .cls-1 {
        fill:none;
        stroke:#231f20;
        stroke-miterlimit:10;
        stroke-width:5px;
      }
    </style>
  </defs>
  <g id="Layer_2" data-name="Layer 2">
    <g id="Layer_1-2" data-name="Layer 1">
      <path class="cls-1" d="M36.37,3.58V48.74a31.69,31.69,0,0,1-1,7.77A23.92,23.92,0,0,1,33.49,61a20.59,20.59,0,0,1-2.66,3.69A9.94,9.94,0,0,1,27,67.2a26.5,26.5,0,0,1-5.25,1.32,23.68,23.68,0,0,1-5.45.22,24.2,24.2,0,0,1-4.76-.88,11.42,11.42,0,0,1-4.34-2.57A17.94,17.94,0,0,1,3.58,61,15,15,0,0,1,1.7,56.29,53.38,53.38,0,0,1,1,49.43Z"/>
      <path class="cls-1" d="M68,36.44q0-14.85,7.76-24.12,8.31-9.87,22.9-9.87,14.11,0,22.56,9.67,8.05,9.29,8.06,23.59t-8.11,23.38q-8.44,9.63-22.56,9.62-13.58,0-22.21-9.37Q68,50.16,68,36.44Z"/>
      <path class="cls-1" d="M211.38,2.84v65l-52-64.51V67.64Z"/>
      <path class="cls-1" d="M238.12,67.64,267.46,3.82l30.08,63.82Z"/>
      <path class="cls-1" d="M371.11,21.4q-1.12-6.93-2.79-9.69A16,16,0,0,0,364.1,7a23.6,23.6,0,0,0-5.79-3.12,21.56,21.56,0,0,0-5.44-1.44c-1.48-.15-3.34-.26-5.57-.34a29,29,0,0,0-6.44.44,27.46,27.46,0,0,0-6,1.78A19.54,19.54,0,0,0,329.31,8a16.28,16.28,0,0,0-4,5.35A14.61,14.61,0,0,0,324,19.49a14.63,14.63,0,0,0,3.54,9.89,13,13,0,0,0,3.54,2.91,14.66,14.66,0,0,0,5.22,1.56,29.89,29.89,0,0,0,6.23.22c2-.15,3.89-.22,5.69-.22s3.9.11,6.34.32a44.87,44.87,0,0,1,6.55,1,20.71,20.71,0,0,1,5.44,2.12,10.73,10.73,0,0,1,4,3.79,12.61,12.61,0,0,1,1.79,5.1,43.31,43.31,0,0,1,.34,5.1,12.26,12.26,0,0,1-.88,4.57,18.64,18.64,0,0,1-7,8.57,22.19,22.19,0,0,1-5.89,2.88,32.7,32.7,0,0,1-6.1,1.32,29.38,29.38,0,0,1-6.22,0c-2.15-.23-4.2-.49-6.13-.79a22,22,0,0,1-4.79-1.19,25.64,25.64,0,0,1-3.88-2,23.5,23.5,0,0,1-3.44-2.57,27.39,27.39,0,0,1-3.13-3.54A12.05,12.05,0,0,1,323,54a59.51,59.51,0,0,1-1-6.79Z"/>
    </g>
  </g>
</svg>